<?xml version="1.0" encoding="utf-8"?>
<!-- Generator: Adobe Illustrator 24.1.3, SVG Export Plug-In . SVG Version: 6.00 Build 0)  -->
<svg version="1.1" id="Layer_1" xmlns="http://www.w3.org/2000/svg" xmlns:xlink="http://www.w3.org/1999/xlink" x="0px" y="0px"
	 viewBox="0 0 799.5 856.8" style="enable-background:new 0 0 799.5 856.8;" xml:space="preserve">
<style type="text/css">
	.st0{fill:#60504B;}
	.st1{fill:#FFFFFF;}
	.st2{fill:#A8BFEC;}
	.st3{fill:#EFB0B7;}
	.st4{fill:#EFE4FE;}
	.st5{fill:#EDEDF5;}
	.st6{fill:none;}
	.st7{fill:#F3AF9D;}
	.st8{fill:#FEE6DE;}
	.st9{fill:#FAD1D3;}
	.st10{fill:#FEEDDD;}
	.st11{fill:#9A8E99;}
	.st12{fill:#FED0CC;}
	.st13{fill:#AC80DF;}
	.st14{fill:#CCCCCC;}
	.st15{fill:#C8DCF3;}
	.st16{fill:#EDE0CE;stroke:#EDE0CE;stroke-width:2;stroke-miterlimit:10;}
	.st17{fill:none;stroke:#000000;stroke-miterlimit:10;}
	.st18{fill:#EED5D2;}
</style>
<g id="illustration_1_">
	<path class="st0" d="M420.8,772.2V819c0,48.8,55.4,50.3,55.4,4.5v-51.8L420.8,772.2z"/>
	<rect x="433.2" y="793.5" class="st1" width="30.6" height="4.4"/>
	<rect x="433.2" y="801.9" class="st1" width="30.6" height="4.4"/>
	<rect x="433.2" y="810.4" class="st1" width="30.6" height="4.4"/>
	<path class="st0" d="M317.5,772.2V819c0,48.8,55.4,50.3,55.4,4.5v-51.8L317.5,772.2z"/>
	<path class="st2" d="M291.8,398c0,66.4,0,148.9,0,228.2c0,55.8,0,110,0,155.8c56.6,0,51.8,0,92.7,0c0-46.8,0-101.4,0-154.5
		c0-75.9,0-148.8,0-191.6c5.9,0,20.5,0,25.9,0c0,41.3,0,115.8,0,191.6c0,54.9,0,110.4,0,154.5c45,0,35.6,0,92.7,0
		c0-43,0-97.5,0-154.5c0-79.5,0-164,0-229.5H291.8z"/>
	<rect x="329.9" y="793.5" class="st1" width="30.6" height="4.4"/>
	<rect x="329.9" y="801.9" class="st1" width="30.6" height="4.4"/>
	<rect x="329.9" y="810.4" class="st1" width="30.6" height="4.4"/>
	<g>
		<path class="st1" d="M447.9,168.9c-27.8-13.5-68.3-15.8-101.3-0.1c-5.1-10.8-14-45.8-13.1-80.4C334.6,47.9,349,7.9,398.8,8
			c47.8,0,61.8,39.1,62.5,79.7C461.3,120.8,447.9,168.9,447.9,168.9z"/>
		<circle class="st3" cx="459.1" cy="82.8" r="12.1"/>
		<circle class="st3" cx="336.5" cy="82.8" r="12.1"/>
		<circle id="jawMid_2_" cx="398.4" cy="133.1" r="0.8"/>
		<circle id="rightJaw7_2_" cx="387.5" cy="131.1" r="0.8"/>
		<circle id="leftJaw7_2_" cx="409.3" cy="131.1" r="0.8"/>
		<circle id="rightJaw3_2_" cx="353.2" cy="75.6" r="0.8"/>
		<circle id="rightJaw2_2_" cx="353.2" cy="66.1" r="0.8"/>
		<circle id="leftJaw3_2_" cx="441.4" cy="76" r="0.8"/>
		<circle id="leftJaw2_2_" cx="441.4" cy="66.4" r="0.8"/>
		<circle id="topMid_2_" cx="397.6" cy="15" r="0.8"/>
		<circle id="leftTop0_2_" cx="415.3" cy="17.5" r="0.8"/>
		<circle id="rightTop0_2_" cx="379.7" cy="17.5" r="0.8"/>
		<path class="st4" d="M424.5,11.2c1.3-3.6,2.1-7.4,2.5-11.2c2.6,3.1,3.8,7.4,3.2,11.4c-0.1,0.7-0.3,1.5-0.7,2.1
			c-0.7,0.9-1.9,1.2-3,1.4c-1.8,0.4-3.6,0.8-5.5,1C422.6,14.5,423.8,13.2,424.5,11.2z"/>
		<path class="st4" d="M423.4,15.7c5.8-0.4,10.8-5.7,11-11.5c2.3,1,3.4,3.9,2.7,6.3c-0.7,2.4-2.9,4.2-5.3,4.9
			c-2.4,0.7-5,0.4-7.4-0.3"/>
	</g>
	<path class="st5" d="M274.4,413.2c-1.3-73.2,11.7-128.9,32.3-167.4c12.6-23.6,28-40.7,44.8-51.6c14.7-9.5,30.5-14.1,46.2-13.9
		c15.6,0.2,31.3,5.2,45.9,14.8c16.5,10.9,31.8,27.8,44.3,50.7c21.3,38.8,34.7,94.8,33.1,167.4H274.4L274.4,413.2z"/>
	<line class="st6" x1="514.3" y1="413.8" x2="281.5" y2="413.8"/>
	<ellipse class="st1" cx="398.3" cy="200.3" rx="22" ry="16.3"/>
	<path class="st7" d="M389.1,126.5"/>
	<path class="st8" d="M387.1,114.7H408c0,0,4.3,61.7,5.7,85.2c-2.1,9.7-9.1,11.3-15.5,11.1c-8.2-0.2-15.9-4.7-17.1-12.5L387.1,114.7
		z"/>
	<path class="st9" d="M387.1,114.7H408c1.9,19-21.7,83.8-26.9,83.8L387.1,114.7z"/>
	<g>
		<ellipse class="st10" cx="398.1" cy="77.3" rx="56.4" ry="57.6"/>
		<circle id="jawMid_1_" cx="398.4" cy="133.1" r="0.8"/>
		<circle id="rightJaw7_1_" cx="387.5" cy="131.1" r="0.8"/>
		<circle id="leftJaw7_1_" cx="409.3" cy="131.1" r="0.8"/>
		<circle id="rightJaw3_1_" cx="353.2" cy="75.6" r="0.8"/>
		<circle id="rightJaw2_1_" cx="353.2" cy="66.1" r="0.8"/>
		<circle id="leftJaw3_1_" cx="441.4" cy="76" r="0.8"/>
		<circle id="leftJaw2_1_" cx="441.4" cy="66.4" r="0.8"/>
		<circle id="topMid_3_" cx="397.6" cy="15" r="0.8"/>
		<circle id="leftTop0_3_" cx="415.3" cy="17.5" r="0.8"/>
		<circle id="rightTop0_3_" cx="379.7" cy="17.5" r="0.8"/>
	</g>
	<g>
		<path class="st11" d="M351.6,70.9c3.1-6.1,13.1-6.7,21.1-6.1c0.7,2.3,0.7,3.8-0.1,3.7C369.5,68.4,362.4,64.6,351.6,70.9z"/>
		<circle id="rightBrow1_1_" cx="365.4" cy="52.2" r="0.8"/>
		<circle id="rightBrow4_1_" cx="388.7" cy="55.2" r="0.8"/>
		<circle id="rightBrow3_1_" cx="378.9" cy="51.2" r="0.8"/>
		<circle id="rightBrow0_1_" cx="361.4" cy="55.9" r="0.8"/>
		<circle id="rightBrow2_1_" cx="371.6" cy="51.2" r="0.8"/>
	</g>
	<g>
		<path class="st11" d="M439.6,69.8c-7.5-3.4-8.8-2.2-19-1c-0.3-0.8-0.5-1.7-0.1-4c6,0.5,16-2.3,21.1,6.1
			C440.9,70.5,440.3,70.1,439.6,69.8z"/>
		<circle id="leftBrow1_1_" cx="429.1" cy="52.6" r="0.8"/>
		<circle id="leftBrow4_1_" cx="405.5" cy="54.7" r="0.8"/>
		<circle id="leftBrow3_1_" cx="415.5" cy="51.5" r="0.8"/>
		<circle id="leftBrow0_1_" cx="433.1" cy="55.5" r="0.8"/>
		<circle id="leftBrow2_1_" cx="422.8" cy="51.1" r="0.8"/>
	</g>
	<g>
		<ellipse class="st12" cx="363" cy="96.5" rx="7.8" ry="6.2"/>
		<ellipse class="st13" cx="365.9" cy="80.6" rx="3.6" ry="5.8"/>
		<circle id="rightEye0_1_" cx="367.6" cy="64.1" r="0.8"/>
		<circle id="rightEye1_1_" cx="372.8" cy="60.4" r="0.8"/>
		<circle id="rightEye5_1_" cx="372.8" cy="66.4" r="0.8"/>
		<circle id="rightEye2_1_" cx="379.1" cy="60.4" r="0.8"/>
		<circle id="rightEye3_1_" cx="384.3" cy="64.6" r="0.8"/>
		<circle id="rightEye4_1_" cx="379.1" cy="65.6" r="0.8"/>
	</g>
	<g>
		<ellipse class="st13" cx="427.7" cy="80.6" rx="3.6" ry="5.8"/>
		<ellipse class="st12" cx="432.1" cy="96.5" rx="7.8" ry="6.2"/>
		<circle id="leftEye0_1_" cx="427.2" cy="64.1" r="0.8"/>
		<circle id="leftEye1_1_" cx="422" cy="60.4" r="0.8"/>
		<circle id="leftEye5_1_" cx="422" cy="66.4" r="0.8"/>
		<circle id="leftEye2_1_" cx="415.7" cy="60.4" r="0.8"/>
		<circle id="leftEye3_1_" cx="410.5" cy="64.6" r="0.8"/>
		<circle id="leftEye4_1_" cx="415.7" cy="65.6" r="0.8"/>
	</g>
	<g>
		<path id="rightMiddleLip_2_" d="M383.7,103.6c0.4,0,0.8,0.4,0.8,0.8s-0.4,0.8-0.8,0.8s-0.8-0.4-0.8-0.8S383.3,103.6,383.7,103.6z"
			/>
		<circle id="upperLipBottomMid_1_" cx="397.4" cy="104.1" r="0.8"/>
		<circle id="rightUpperLipBottom1_1_" cx="393.5" cy="103.6" r="0.8"/>
		<path id="leftMiddleLip_2_" d="M411.1,103.6c0.4,0,0.8,0.4,0.8,0.8s-0.4,0.8-0.8,0.8s-0.8-0.4-0.8-0.8S410.7,103.6,411.1,103.6z"
			/>
		<circle id="leftUpperLipBottom1_1_" cx="401.3" cy="103.6" r="0.8"/>
		<path class="st14" d="M384.5,104.4c0,0,7.4-0.2,12.9-0.2s13.9-0.1,13.9-0.1s-6.1,4-13.9,4C389.5,108.1,384.5,104.4,384.5,104.4z"
			/>
		<circle id="lowerLipTopMid_2_" cx="397.4" cy="107.1" r="0.8"/>
		<circle id="rightLowerLipTop0_2_" cx="393.5" cy="106.4" r="0.8"/>
		<circle id="leftLowerLipTop0_2_" cx="401.3" cy="106.4" r="0.8"/>
	</g>
	<g>
		<path class="st1" d="M409.6,31.2c-0.2,8.5-8.4,18.8-25.9,23.3c-2.1,0.5,9-8.2,13.7-18.5c-19.7,23.6-29.8,27.3-63.8,25.6
			c5.1-22.7,26.3-53.3,63.3-53.7S454,29.5,462,64.2C440.1,59.1,422.4,61.2,409.6,31.2z"/>
		<circle id="jawMid_3_" cx="398.4" cy="133.1" r="0.8"/>
		<circle id="rightJaw7_3_" cx="387.5" cy="131.1" r="0.8"/>
		<circle id="leftJaw7_3_" cx="409.3" cy="131.1" r="0.8"/>
		<circle id="rightJaw3_3_" cx="353.2" cy="75.6" r="0.8"/>
		<circle id="rightJaw2_3_" cx="353.2" cy="66.1" r="0.8"/>
		<circle id="leftJaw3_3_" cx="441.4" cy="76" r="0.8"/>
		<circle id="leftJaw2_3_" cx="441.4" cy="66.4" r="0.8"/>
		<circle id="topMid_1_" cx="397.6" cy="15" r="0.8"/>
		<circle id="leftTop0_1_" cx="415.3" cy="17.5" r="0.8"/>
		<circle id="rightTop0_1_" cx="379.7" cy="17.5" r="0.8"/>
	</g>
	<path class="st10" d="M741.3,230.4l17-6.8c0,0,6.1,5.5,13,11.2s-4.7,18.4-15.3,10.6C745.3,237.6,741.3,230.4,741.3,230.4z"/>
	<path class="st15" d="M183.3,171.3l3,56.8c58.9,0.3,93.5-2.3,119.3,17.7l48.7-50.2C300,168.9,239.3,167.9,183.3,171.3z"/>
	<path class="st15" d="M443.2,194.6l43.3,53.2c27-16.2,67.7-16.3,126.6-16.7v-56.8C557.1,170.9,513.9,163.9,443.2,194.6z"/>
	<path class="st10" d="M188.5,177.9c-47.7,2.7-123.1,8.9-160.2,14.2c-37.1,5.3-40.1,40.1,5.3,39.5s95.2-3.5,159.7-12.1L188.5,177.9z
		"/>
	<path class="st10" d="M53.1,230.4l-17-6.8c0,0-6.1,5.5-13,11.2s4.7,18.4,15.3,10.6C49.1,237.6,53.1,230.4,53.1,230.4z"/>
	<path class="st10" d="M607.2,222.5c64.5,8.6,113.3,11.5,158.7,12.1s42.4-34.2,5.3-39.5c-37.1-5.3-114.5-11.5-162.2-14.2
		L607.2,222.5z"/>
	<g>
		<circle id="nose1_1_" cx="396.6" cy="65.1" r="0.8"/>
		<circle id="nose0_1_" cx="396.6" cy="59.3" r="0.8"/>
		<circle id="nose3_1_" cx="396.6" cy="77.7" r="0.8"/>
		<circle id="rightNose0_1_" cx="385.9" cy="82.2" r="0.8"/>
		<circle id="rightNose1_1_" cx="391.1" cy="82.2" r="0.8"/>
		<circle id="nose2_1_" cx="396.6" cy="70.6" r="0.8"/>
		<circle id="nose4_1_" cx="396.6" cy="83" r="0.8"/>
		<circle id="leftNose0_1_" cx="407" cy="82.2" r="0.8"/>
		<circle id="leftNose1_1_" cx="402.2" cy="82.2" r="0.8"/>
		<path class="st16" d="M395.3,81.8c-1.2,0-4.6,1.5-5.8,5c-0.2,1.2,0.6,5.6,6,3.9c-0.1-1-4.7-1.1-4.5-3.6
			C391.3,85.5,393,85.5,395.3,81.8z"/>
	</g>
</g>
<g id="skeleton_1_">
	<polygon class="st17" points="291.7,198.5 342,414.3 458.4,413.5 504.6,198.5 	"/>
	<polyline class="st17" points="290.7,198.5 188,198.5 24.7,204.8 	"/>
	<polyline class="st17" points="506.1,198.1 609.3,198.1 772.6,204.5 	"/>
	<polyline class="st17" points="342,414.3 348.4,574.5 348.4,782.5 	"/>
	<polyline class="st17" points="458.4,413.5 458.4,574.5 458.4,782.5 	"/>
	<polyline class="st17" points="397.4,19 377.6,21.5 365.1,31 356.5,45.1 354,54.4 353.2,66.1 353.2,75.6 354,97.3 360.8,117.3 
		372.4,129.8 382.4,136.5 397.4,139.7 412.2,136.9 422.2,130.2 433.8,117.6 440.6,97.6 441.4,76 441.4,66.4 440.6,54.7 438.1,45.5 
		429.9,31 417.3,21.5 397.4,19 	"/>
	<polyline class="st17" points="361.4,55.9 365.4,52.2 371.6,51.2 378.9,51.2 388.7,55.2 	"/>
	<polygon class="st17" points="367.6,64.1 372.8,60.4 379.1,60.4 384.3,64.6 379.1,65.6 372.8,66.4 	"/>
	<polyline class="st17" points="385.9,82.2 391.1,82.2 396.6,83 396.6,77.7 396.6,70.6 396.6,65.1 396.6,59.3 	"/>
	<polyline class="st17" points="432.9,55.5 428.9,52.6 422.6,51.1 415.3,51.5 405.3,54.7 	"/>
	<polygon class="st17" points="427,64.1 421.7,60.4 415.4,60.4 410.3,64.6 415.4,65.6 421.7,66.4 	"/>
	<polyline class="st17" points="407,82.2 402,82.2 396.6,83 	"/>
	<polygon class="st17" points="379.9,104.3 386.8,100.9 393.3,99.8 397.4,100.7 401.6,99.8 408,100.9 414.9,104.3 408.5,110.6 
		401.4,113.4 397.4,113.9 393.3,113.4 386.3,110.6 	"/>
	<polyline class="st17" points="379.9,104.3 383.5,104.6 393.5,103.8 397.4,104.3 401.4,103.8 411.3,104.6 414.9,104.3 	"/>
	<polyline class="st17" points="379.9,104.3 383.5,104.6 393.5,106.7 397.4,107.5 401.4,106.7 411.3,104.6 414.9,104.3 	"/>
	<circle id="rightShoulder" cx="291.8" cy="198.2" r="8.2"/>
	<circle id="rightElbow" cx="188.3" cy="198.3" r="8.2"/>
	<circle id="rightWrist" cx="24.9" cy="204.7" r="8.2"/>
	<circle id="rightHip" cx="342.1" cy="414" r="8.2"/>
	<circle id="rightKnee" cx="348.5" cy="574.2" r="8.2"/>
	<circle id="rightAnkle" cx="348.5" cy="782.2" r="8.2"/>
	<circle id="leftElbow" cx="609.1" cy="197.9" r="8.2"/>
	<circle id="leftWrist" cx="772.5" cy="204.2" r="8.2"/>
	<circle id="leftHip" cx="458.5" cy="413.2" r="8.2"/>
	<circle id="leftKnee" cx="458.5" cy="574.2" r="8.2"/>
	<circle id="leftAnkle" cx="458.5" cy="782.2" r="8.2"/>
	<circle id="rightEye0" cx="367.6" cy="64.1" r="0.8"/>
	<circle id="rightBrow1" cx="365.4" cy="52.2" r="0.8"/>
	<circle id="rightBrow4" cx="388.7" cy="55.2" r="0.8"/>
	<circle id="nose1" cx="396.6" cy="65.1" r="0.8"/>
	<circle id="rightBrow3" cx="378.9" cy="51.2" r="0.8"/>
	<circle id="rightEye1" cx="372.8" cy="60.4" r="0.8"/>
	<circle id="rightBrow0" cx="361.4" cy="55.9" r="0.8"/>
	<circle id="rightBrow2" cx="371.6" cy="51.2" r="0.8"/>
	<circle id="rightEye5" cx="372.8" cy="66.4" r="0.8"/>
	<circle id="rightEye2" cx="379.1" cy="60.4" r="0.8"/>
	<circle id="rightEye3" cx="384.3" cy="64.6" r="0.8"/>
	<circle id="nose0" cx="396.6" cy="59.3" r="0.8"/>
	<circle id="nose3" cx="396.6" cy="77.7" r="0.8"/>
	<circle id="rightNose0" cx="385.9" cy="82.2" r="0.8"/>
	<circle id="rightMouthCorner" cx="379.9" cy="104.3" r="0.8"/>
	<circle id="rightNose1" cx="391.1" cy="82.2" r="0.8"/>
	<circle id="rightUpperLipTop0" cx="386.8" cy="100.9" r="0.8"/>
	<circle id="nose2" cx="396.6" cy="70.6" r="0.8"/>
	<circle id="nose4" cx="396.6" cy="83" r="0.8"/>
	<circle id="upperLipTopMid" cx="397.4" cy="100.7" r="0.8"/>
	<circle id="rightUpperLipTop1" cx="393.3" cy="99.8" r="0.8"/>
	<path id="rightMiddleLip" d="M383.5,103.8c0.4,0,0.8,0.4,0.8,0.8c0,0.4-0.4,0.8-0.8,0.8s-0.8-0.4-0.8-0.8S383.1,103.8,383.5,103.8z
		"/>
	<circle id="lowerLipBottomMid" cx="397.4" cy="113.9" r="0.8"/>
	<circle id="upperLipBottomMid" cx="397.4" cy="104.3" r="0.8"/>
	<circle id="lowerLipTopMid" class="st18" cx="397.4" cy="107.4" r="0.8"/>
	<circle id="rightUpperLipBottom1" cx="393.5" cy="103.8" r="0.8"/>
	<circle id="rightLowerLipTop0" cx="393.5" cy="106.7" r="0.8"/>
	<circle id="rightLowerLipBottom1" cx="393.3" cy="113.4" r="0.8"/>
	<circle id="rightLowerLipBottom0" cx="386.3" cy="110.6" r="0.8"/>
	<circle id="rightEye4" cx="379.1" cy="65.6" r="0.8"/>
	<circle id="jawMid" cx="397.4" cy="139.7" r="0.8"/>
	<circle id="rightJaw7" cx="382.4" cy="136.5" r="0.8"/>
	<circle id="rightJaw6" cx="372.4" cy="129.8" r="0.8"/>
	<circle id="rightJaw5" cx="360.8" cy="117.3" r="0.8"/>
	<circle id="rightJaw4" cx="354" cy="97.3" r="0.8"/>
	<circle id="rightJaw3" cx="353.2" cy="75.6" r="0.8"/>
	<circle id="rightJaw2" cx="353.2" cy="66.1" r="0.8"/>
	<circle id="rightJaw1" cx="354" cy="54.4" r="0.8"/>
	<circle id="rightJaw0" cx="356.5" cy="45.1" r="0.8"/>
	<circle id="topMid" cx="397.6" cy="19" r="0.8"/>
	<circle id="leftTop0" cx="417.3" cy="21.5" r="0.8"/>
	<circle id="leftTop1" cx="429.9" cy="31" r="0.8"/>
	<circle id="leftEye0" cx="427.2" cy="64.1" r="0.8"/>
	<circle id="leftBrow1" cx="429.1" cy="52.6" r="0.8"/>
	<circle id="leftBrow4" cx="405.5" cy="54.7" r="0.8"/>
	<circle id="leftBrow3" cx="415.5" cy="51.5" r="0.8"/>
	<circle id="leftEye1" cx="422" cy="60.4" r="0.8"/>
	<circle id="leftBrow0" cx="433.1" cy="55.5" r="0.8"/>
	<circle id="leftBrow2" cx="422.8" cy="51.1" r="0.8"/>
	<circle id="leftEye5" cx="422" cy="66.4" r="0.8"/>
	<circle id="leftEye2" cx="415.7" cy="60.4" r="0.8"/>
	<circle id="leftEye3" cx="410.5" cy="64.6" r="0.8"/>
	<circle id="leftNose0" cx="407" cy="82.2" r="0.8"/>
	<circle id="leftMouthCorner" cx="414.9" cy="104.3" r="0.8"/>
	<circle id="leftNose1" cx="402.2" cy="82.2" r="0.8"/>
	<circle id="leftUpperLipTop0" cx="408" cy="100.9" r="0.8"/>
	<circle id="leftUpperLipTop1" cx="401.6" cy="99.8" r="0.8"/>
	<path id="leftMiddleLip" d="M411.3,103.8c0.4,0,0.8,0.4,0.8,0.8c0,0.4-0.4,0.8-0.8,0.8s-0.8-0.4-0.8-0.8S410.9,103.8,411.3,103.8z"
		/>
	<circle id="leftUpperLipBottom1" cx="401.4" cy="103.8" r="0.8"/>
	<circle id="leftLowerLipTop0" cx="401.4" cy="106.7" r="0.8"/>
	<circle id="leftLowerLipBottom1" cx="401.6" cy="113.4" r="0.8"/>
	<circle id="leftLowerLipBottom0" cx="408.5" cy="110.6" r="0.8"/>
	<circle id="leftEye4" cx="415.7" cy="65.6" r="0.8"/>
	<circle id="leftJaw7" cx="412.2" cy="136.9" r="0.8"/>
	<circle id="leftJaw6" cx="422.2" cy="130.2" r="0.8"/>
	<circle id="leftJaw5" cx="433.8" cy="117.6" r="0.8"/>
	<circle id="leftJaw4" cx="440.6" cy="97.6" r="0.8"/>
	<circle id="leftJaw3" cx="441.4" cy="76" r="0.8"/>
	<circle id="leftJaw2" cx="441.4" cy="66.4" r="0.8"/>
	<circle id="leftJaw1" cx="440.6" cy="54.7" r="0.8"/>
	<circle id="leftJaw0" cx="438.1" cy="45.5" r="0.8"/>
	<circle id="rightTop0" cx="377.7" cy="21.5" r="0.8"/>
	<circle id="rightTop1" cx="365.1" cy="31" r="0.8"/>
	<circle id="leftShoulder" cx="504.7" cy="198.2" r="8.2"/>
</g>
</svg>
